<svg width="54" height="70" viewBox="0 0 54 70" fill="none" xmlns="http://www.w3.org/2000/svg">
    <g clip-path="url(#clip0_47_311)">
        <path d="M35.8158 24.9367C35.015 24.1359 33.7165 24.1359 32.9156 24.9367C32.1148 25.7374 32.1148 27.036 32.9156 27.8369L35.8158 30.7371C36.2162 31.1376 36.7411 31.3379 37.2658 31.3379C37.7906 31.3379 38.3155 31.1376 38.7159 30.7371L44.5163 24.9367C45.3172 24.1359 45.3172 22.8374 44.5163 22.0365C43.7155 21.2354 42.4171 21.2357 41.6161 22.0365L37.266 26.3867L35.8158 24.9367Z"
              fill="#FCBC2F"/>
        <path d="M41.6164 32.4271L37.266 36.7774L35.8158 35.3273C35.015 34.5266 33.7165 34.5266 32.9156 35.3273C32.1148 36.1281 32.1148 37.4266 32.9156 38.2275L35.8158 41.1277C36.2162 41.5282 36.7411 41.7285 37.2658 41.7285C37.7906 41.7285 38.3155 41.5282 38.7159 41.1277L44.5163 35.3273C45.3172 34.5266 45.3172 33.228 44.5163 32.4271C43.7157 31.6259 42.4172 31.6262 41.6164 32.4271Z"
              fill="#FCBC2F"/>
        <path d="M26.6602 24.3359H10.2539C9.12133 24.3359 8.20312 25.2541 8.20312 26.3867C8.20312 27.5193 9.12133 28.4375 10.2539 28.4375H26.6602C27.7927 28.4375 28.7109 27.5193 28.7109 26.3867C28.7109 25.2541 27.7927 24.3359 26.6602 24.3359Z"
              fill="#FCBC2F"/>
        <path d="M26.6602 34.7266H10.2539C9.12133 34.7266 8.20312 35.6448 8.20312 36.7773C8.20312 37.9099 9.12133 38.8281 10.2539 38.8281H26.6602C27.7927 38.8281 28.7109 37.9099 28.7109 36.7773C28.7109 35.6448 27.7927 34.7266 26.6602 34.7266Z"
              fill="#FCBC2F"/>
        <path d="M26.6602 45.1172H10.2539C9.12133 45.1172 8.20312 46.0354 8.20312 47.168C8.20312 48.3005 9.12133 49.2188 10.2539 49.2188H26.6602C27.7927 49.2188 28.7109 48.3005 28.7109 47.168C28.7109 46.0354 27.7927 45.1172 26.6602 45.1172Z"
              fill="#FCBC2F"/>
        <path d="M26.6602 55.5078H10.2539C9.12133 55.5078 8.20312 56.426 8.20312 57.5586C8.20312 58.6912 9.12133 59.6094 10.2539 59.6094H26.6602C27.7927 59.6094 28.7109 58.6912 28.7109 57.5586C28.7109 56.426 27.7927 55.5078 26.6602 55.5078Z"
              fill="#FCBC2F"/>
        <path d="M51.2695 8.20312H39.6067C38.8339 6.56359 37.1764 5.46875 35.2814 5.46875H33.3884L34.1186 2.54816C34.2717 1.93566 34.134 1.28639 33.7455 0.788731C33.3566 0.290938 32.7604 0 32.1289 0H21.1914C20.5599 0 19.9637 0.290938 19.575 0.788731C19.1864 1.28652 19.0487 1.93566 19.2019 2.54816L19.9321 5.46875H18.0391C16.1442 5.46875 14.4866 6.56359 13.7137 8.20312H2.05078C0.918203 8.20312 0 9.12133 0 10.2539V67.9492C0 69.0818 0.918203 70 2.05078 70H51.2695C52.4021 70 53.3203 69.0818 53.3203 67.9492V10.2539C53.3203 9.12133 52.4021 8.20312 51.2695 8.20312ZM18.0389 9.57031H22.5586C23.1901 9.57031 23.7863 9.27938 24.175 8.78158C24.5636 8.28379 24.7013 7.63465 24.5481 7.02215L23.8179 4.10156H29.5023L28.772 7.02215C28.6189 7.63465 28.7566 8.28393 29.1452 8.78158C29.534 9.27938 30.1302 9.57031 30.7617 9.57031H35.2814C35.6169 9.57031 35.9004 9.81053 35.9557 10.1415L36.544 13.6719H16.7763L17.3648 10.1415C17.4199 9.81053 17.7034 9.57031 18.0389 9.57031ZM49.2188 65.8984H4.10156V12.3047H12.8461L12.3326 15.3855C12.2335 15.9801 12.4009 16.5882 12.7907 17.0481C13.1805 17.5081 13.7527 17.7734 14.3555 17.7734H38.9648C39.5676 17.7734 40.1399 17.5082 40.5296 17.0481C40.9192 16.5881 41.0869 15.98 40.9877 15.3855L40.4742 12.3047H49.2188V65.8984Z"
              fill="#FCBC2F"/>
    </g>
    <defs>
        <clipPath id="clip0_47_311">
            <rect width="53.3203" height="70" fill="white"/>
        </clipPath>
    </defs>
</svg>
