<svg width="70" height="70" viewBox="0 0 70 70" fill="none" xmlns="http://www.w3.org/2000/svg">
    <path d="M6.5625 54.6875L12.25 45.5C15.5312 40.4687 21 37.1875 27.125 37.1875H41.5625C41.5625 42 37.625 45.9375 32.8125 45.9375H28.4375"
          stroke="#FCBC2F" stroke-width="2" stroke-miterlimit="10" stroke-linecap="round" stroke-linejoin="round"/>
    <path d="M32.8125 45.9375H50.3125L52.9375 42.4375C55.3438 39.1562 59.2813 37.1875 63.4375 37.1875L57.5312 47.6875C54.4687 53.375 48.3438 56.875 42 56.875C31.7188 56.875 21.6563 59.9375 13.125 65.625"
          stroke="#FCBC2F" stroke-width="2" stroke-miterlimit="10" stroke-linecap="round" stroke-linejoin="round"/>
    <path d="M59.0625 4.375H10.9375V30.625H35H59.0625V4.375Z" stroke="#FCBC2F" stroke-width="2" stroke-miterlimit="10"
          stroke-linecap="round" stroke-linejoin="round"/>
    <path d="M59.0625 13.125C54.25 13.125 50.3125 9.1875 50.3125 4.375" stroke="#FCBC2F" stroke-width="2"
          stroke-miterlimit="10" stroke-linecap="round" stroke-linejoin="round"/>
    <path d="M10.9375 21.875C15.75 21.875 19.6875 25.8125 19.6875 30.625" stroke="#FCBC2F" stroke-width="2"
          stroke-miterlimit="10" stroke-linecap="round" stroke-linejoin="round"/>
    <path d="M35 24.0625C38.6244 24.0625 41.5625 21.1244 41.5625 17.5C41.5625 13.8756 38.6244 10.9375 35 10.9375C31.3756 10.9375 28.4375 13.8756 28.4375 17.5C28.4375 21.1244 31.3756 24.0625 35 24.0625Z"
          stroke="#FCBC2F" stroke-width="2" stroke-miterlimit="10" stroke-linecap="round" stroke-linejoin="round"/>
    <path d="M19.6875 4.375C19.6875 9.1875 15.75 13.125 10.9375 13.125" stroke="#FCBC2F" stroke-width="2"
          stroke-miterlimit="10" stroke-linecap="round" stroke-linejoin="round"/>
    <path d="M59.0625 21.875C54.25 21.875 50.3125 25.8125 50.3125 30.625" stroke="#FCBC2F" stroke-width="2"
          stroke-miterlimit="10" stroke-linecap="round" stroke-linejoin="round"/>
</svg>
