<svg width="50" height="68" viewBox="0 0 50 68" fill="none" xmlns="http://www.w3.org/2000/svg">
    <path fill-rule="evenodd" clip-rule="evenodd"
          d="M10.9571 45.3979L4.10508 60.6516C3.97418 60.9431 4.01254 61.2828 4.20518 61.5377C4.39782 61.7926 4.71408 61.9223 5.0302 61.8759L12.1894 60.8257L16.1594 66.8751C16.3346 67.1422 16.6417 67.2925 16.9602 67.2672C17.2788 67.242 17.5581 67.045 17.689 66.7535L24.815 50.89L31.941 66.7535C32.0719 67.045 32.3512 67.242 32.6698 67.2672C32.9883 67.2925 33.2954 67.1422 33.4706 66.8751L37.4406 60.8257L44.5998 61.8759C44.9159 61.9223 45.2322 61.7926 45.4248 61.5377C45.6175 61.2828 45.6558 60.9431 45.5249 60.6516L38.6729 45.3979C45.281 40.938 49.63 33.3803 49.63 24.815C49.63 11.1192 38.5108 0 24.815 0C11.1192 0 0 11.1192 0 24.815C0 33.3803 4.34896 40.938 10.9571 45.3979ZM37.1748 46.3334C33.8979 48.221 30.15 49.3818 26.1516 49.5946L32.8832 64.5806L36.2838 59.3989C36.4706 59.1143 36.8054 58.9638 37.1423 59.0132L43.2746 59.9127L37.1748 46.3334ZM12.4552 46.3334L6.35544 59.9127L12.4877 59.0132C12.8246 58.9638 13.1594 59.1143 13.3462 59.3989L16.7468 64.5806L23.4784 49.5946C19.4803 49.3822 15.7318 48.2213 12.4552 46.3334ZM24.815 1.75C37.5449 1.75 47.88 12.0851 47.88 24.815C47.88 37.5449 37.5449 47.88 24.815 47.88C12.0851 47.88 1.75 37.5449 1.75 24.815C1.75 12.0851 12.0851 1.75 24.815 1.75ZM24.815 4.17522C13.4236 4.17522 4.17522 13.4236 4.17522 24.815C4.17522 36.2064 13.4236 45.4548 24.815 45.4548C36.2064 45.4548 45.4548 36.2064 45.4548 24.815C45.4548 13.4236 36.2064 4.17522 24.815 4.17522ZM24.815 5.92522C35.2405 5.92522 43.7048 14.3895 43.7048 24.815C43.7048 35.2405 35.2405 43.7048 24.815 43.7048C14.3895 43.7048 5.92522 35.2405 5.92522 24.815C5.92522 14.3895 14.3895 5.92522 24.815 5.92522ZM25.6108 10.4429C25.4684 10.1315 25.1574 9.93174 24.815 9.93174C24.4726 9.93174 24.1616 10.1315 24.0192 10.4429L20.3006 18.5779L11.4146 19.6007C11.0744 19.6399 10.7883 19.8738 10.6824 20.1996C10.5767 20.5253 10.6705 20.8827 10.9228 21.1144L17.5104 27.1649L15.7373 35.932C15.6694 36.2677 15.8036 36.6121 16.0807 36.8133C16.3577 37.0146 16.7266 37.0357 17.025 36.8675L24.815 32.472L32.605 36.8675C32.9034 37.0357 33.2723 37.0146 33.5493 36.8133C33.8264 36.6121 33.9606 36.2677 33.8927 35.932L32.1196 27.1649L38.7072 21.1144C38.9595 20.8827 39.0533 20.5253 38.9476 20.1996C38.8417 19.8738 38.5556 19.6399 38.2154 19.6007L29.3294 18.5779L25.6108 10.4429ZM24.815 12.9114L27.9432 19.7544C28.0706 20.0332 28.3345 20.2248 28.6388 20.26L36.1137 21.1204L30.5722 26.21C30.3465 26.4173 30.2457 26.7275 30.3064 27.0278L31.7979 34.4028L25.2449 30.7052C24.9781 30.5547 24.6519 30.5547 24.3851 30.7052L17.8321 34.4028L19.3236 27.0278C19.3843 26.7275 19.2835 26.4173 19.0578 26.21L13.5163 21.1204L20.9912 20.26C21.2955 20.2248 21.5594 20.0332 21.6868 19.7544L24.815 12.9114Z"
          fill="#FCBC2F"/>
</svg>
